#!OML:ASF X:\für Bonn\!DataBase\2005_08_12_Daniel\c3d\Daniel.ASF
:FULLY-SPECIFIED
:DEGREES
79
root -3.15794 7.02033 -2.97538 304.694 -82.3268 -336.805
lowerback 55.2948 -3.06088 0.389894
upperback 5.72422 -5.80394 -3.46096
thorax -15.3289 -3.08437 -1.01244
lowerneck 9.04405 2.02576 -1.40496
upperneck -0.551965 2.49398 -0.139017
head -1.72458 1.23327 0.091366
rclavicle -9.54166e-015 6.36111e-015
rhumerus 70.129 3.60147 -82.0147
rradius 10.4104
rwrist 46.5364
rhand -22.9103 13.5314
rfingers 7.12502
rthumb 3.52969 -16.4191
lclavicle -9.54166e-015 6.36111e-015
lhumerus 72.5768 -4.35768 86.0948
lradius 4.68366
lwrist -57.2669
lhand -22.9504 5.11398
lfingers 7.12502
lthumb 3.49097 35.0651
rfemur 20.4502 -46.4553 -140.17
rtibia 153.413
rfoot -70.8019 77.067
rtoes 3.77512
lfemur -52.7592 56.948 34.3055
ltibia 148.847
lfoot -3.19649 -66.4428
ltoes 9.2174
80
root -3.18463 6.83731 -2.97434 304.333 -82.2403 -337.082
lowerback 55.6082 -3.07015 0.391537
upperback 5.97574 -5.86432 -3.4908
thorax -15.0623 -3.13416 -1.02016
lowerneck 8.66651 2.01039 -1.33512
upperneck -0.470302 2.48781 -0.216867
head -1.62823 1.2325 0.0597731
rclavicle 1.71949e-014 -1.27222e-014
rhumerus 70.1325 3.59396 -81.9452
rradius 10.2789
rwrist 46.629
rhand -23.6053 13.756
rfingers 7.12502
rthumb 2.85852 -16.2046
lclavicle 1.71949e-014 -1.27222e-014
lhumerus 72.2563 -4.2175 86.0499
lradius 5.17715
lwrist -56.7012
lhand -22.5833 4.52261
lfingers 7.12502
lthumb 3.84547 34.4677
rfemur 18.4485 -45.375 -142.403
rtibia 154.798
rfoot -79.0672 77.2469
rtoes 3.37805
lfemur -50.8639 59.028 39.0307
ltibia 150.188
lfoot -2.29276 -68.4271
ltoes 9.15887
81
root -3.20988 6.6618 -2.97356 304.242 -82.1513 -337.611
lowerback 55.9161 -3.09198 0.408842
upperback 6.22219 -5.92582 -3.50146
thorax -14.7989 -3.1851 -1.01326
lowerneck 8.27579 1.99266 -1.24351
upperneck -0.353298 2.47898 -0.333375
head -1.51771 1.23067 0.0130899
rclavicle 2.39536e-014 -1.11319e-014
rhumerus 70.0181 3.56478 -82.0395
rradius 10.3103
rwrist 46.8056
rhand -24.3135 14.0366
rfingers 7.12502
rthumb 2.17454 -15.9321
lclavicle 2.39536e-014 -1.11319e-014
lhumerus 71.9281 -4.02558 86.0032
lradius 5.71604
lwrist -56.2493
lhand -22.1875 3.90933
lfingers 7.12502
lthumb 4.22769 33.8471
rfemur 16.0219 -44.4398 -144.174
rtibia 156.126
rfoot -87.5433 77.2572
rtoes 2.89195
lfemur -49.1062 60.7494 43.6144
ltibia 151.449
lfoot -0.685315 -70.2293
ltoes 9.15602
82
root -3.23441 6.49334 -2.97257 303.999 -82.0797 -337.89
lowerback 56.0803 -3.08033 0.405244
upperback 6.49732 -5.95571 -3.51087
thorax -14.4861 -3.22321 -1.01424
lowerneck 7.9319 1.98029 -1.18853
upperneck -0.311486 2.47468 -0.389971
head -1.4418 1.23033 -0.00970029
rclavicle -3.46879e-014 -1.74931e-014
rhumerus 69.8348 3.5005 -82.204
rradius 10.452
rwrist 46.9614
rhand -24.9856 14.3157
rfingers 7.12502
rthumb 1.52548 -15.6586
lclavicle -3.46879e-014 -1.74931e-014
lhumerus 71.6189 -3.81356 85.9474
lradius 6.32198
lwrist -55.8806
lhand -21.6633 3.29646
lfingers 7.12502
lthumb 4.73384 33.2236
rfemur 13.3507 -43.7738 -145.656
rtibia 157.403
rfoot -95.9263 77.1293
rtoes 2.32274
lfemur -47.3507 62.3417 48.1834
ltibia 152.663
lfoot 1.16621 -71.9204
ltoes 9.10168
83
root -3.25669 6.33516 -2.97229 303.764 -82.0035 -338.106
lowerback 56.1795 -3.06821 0.397224
upperback 6.77527 -5.98687 -3.53117
thorax -14.1665 -3.26113 -1.02596
lowerneck 7.62689 1.9605 -1.05967
upperneck -0.274016 2.46406 -0.511417
head -1.37254 1.22781 -0.0651541
rclavicle -4.35338e-014 5.1684e-015
rhumerus 69.6014 3.45016 -82.313
rradius 10.6749
rwrist 46.9227
rhand -25.632 14.727
rfingers 7.12502
rthumb 0.901175 -15.2508
lclavicle -4.35338e-014 5.1684e-015
lhumerus 71.323 -3.61058 85.8749
lradius 6.90179
lwrist -55.5942
lhand -21.1792 2.74986
lfingers 7.12502
lthumb 5.20132 32.666
rfemur 10.5219 -43.3293 -146.851
rtibia 158.598
rfoot -104.076 77.0457
rtoes 1.87269
lfemur -45.9325 63.6972 52.3103
ltibia 153.81
lfoot 3.06275 -73.3945
ltoes 8.96717
84
root -3.27696 6.24357 -2.97323 303.637 -81.9462 -338.415
lowerback 56.3118 -3.06907 0.404654
upperback 7.03819 -6.02257 -3.53818
thorax -13.8675 -3.30122 -1.02703
lowerneck 7.29446 1.96095 -1.03089
upperneck -0.241531 2.47365 -0.55613
head -1.30284 1.23395 -0.0802698
rclavicle -5.76476e-015 7.95139e-016
rhumerus 69.3978 3.46495 -82.2951
rradius 10.896
rwrist 46.7252
rhand -26.2201 15.1464
rfingers 7.12502
rthumb 0.333159 -14.8331
lclavicle -5.76476e-015 7.95139e-016
lhumerus 71.0307 -3.38111 85.8087
lradius 7.49166
lwrist -55.4292
lhand -20.6926 2.23861
lfingers 7.12502
lthumb 5.67113 32.1427
rfemur 171.307 42.6013 32.1168
rtibia 200.701
rfoot -109.913 103.768
rtoes 1.35584
lfemur -43.2826 64.8018 56.7532
ltibia 154.432
lfoot 4.00492 -74.7692
ltoes 8.88235
85
root -3.29498 6.13865 -2.97256 303.468 -81.8727 -338.606
lowerback 56.4585 -3.08138 0.427877
upperback 7.25803 -6.0629 -3.5704
thorax -13.6258 -3.33924 -1.05981
lowerneck 6.93074 1.95072 -0.951382
upperneck -0.154233 2.47326 -0.607256
head -1.20966 1.23453 -0.104665
rclavicle -1.59028e-014 1.03368e-014
rhumerus 69.1536 3.40304 -82.4939
rradius 11.1399
rwrist 46.6723
rhand -26.6985 15.5338
rfingers 7.12502
rthumb -0.128849 -14.4459
lclavicle -1.59028e-014 1.03368e-014
lhumerus 70.745 -3.22575 85.7505
lradius 7.99478
lwrist -55.2952
lhand -20.3191 1.74314
lfingers 7.12502
lthumb 6.03175 31.6373
rfemur 173.713 42.2611 31.6074
rtibia 199.922
rfoot -115.453 104.204
rtoes 0.891437
lfemur -42.3274 65.4729 59.5392
ltibia 155.181
lfoot 5.35023 -75.7011
ltoes 8.73269
86
root -3.31093 6.05873 -2.9718 303.395 -81.8095 -338.824
lowerback 56.6112 -3.09162 0.429134
upperback 7.43754 -6.10313 -3.5659
thorax -13.4261 -3.37454 -1.04067
lowerneck 6.68521 1.96118 -0.941642
upperneck -0.164425 2.49209 -0.663651
head -1.16937 1.24554 -0.121583
rclavicle -2.34566e-014 -2.06736e-014
rhumerus 68.9748 3.45476 -82.3781
rradius 11.3457
rwrist 46.3257
rhand -26.9982 15.922
rfingers 7.12502
rthumb -0.418344 -14.0573
lclavicle -2.34566e-014 -2.06736e-014
lhumerus 70.6353 -3.05747 85.726
lradius 8.07086
lwrist -55.2394
lhand -20.2094 1.34741
lfingers 7.12502
lthumb 6.13769 31.2385
rfemur 175.702 41.9121 31.2995
rtibia 199.325
rfoot -119.301 104.827
rtoes 0.26138
lfemur -41.7085 65.9088 61.5786
ltibia 155.756
lfoot 6.59784 -76.3699
ltoes 8.51659
87
root -3.3228 5.9941 -2.97141 303.336 -81.7445 -338.985
lowerback 56.7381 -3.11103 0.452987
upperback 7.61104 -6.14305 -3.58833
thorax -13.2367 -3.40824 -1.06206
lowerneck 6.56022 1.95987 -0.91292
upperneck -0.269007 2.49553 -0.679151
head -1.18044 1.24882 -0.130618
rclavicle -9.64106e-015 7.15625e-015
rhumerus 68.888 3.45684 -82.3119
rradius 11.4581
rwrist 46.0995
rhand -27.1988 16.2823
rfingers 7.12502
rthumb -0.612065 -13.6966
lclavicle -9.64106e-015 7.15625e-015
lhumerus 70.8087 -2.92071 85.6712
lradius 7.57942
lwrist -55.1532
lhand -20.4263 0.859984
lfingers 7.12502
lthumb 5.92822 30.757
rfemur 177.425 41.6074 31.0913
rtibia 198.831
rfoot -122.472 105.273
rtoes -0.123002
lfemur -41.5986 66.2357 62.7963
ltibia 156.219
lfoot 7.62458 -76.7933
ltoes 8.3339
88
root -3.33071 5.94412 -2.97121 303.342 -81.6799 -339.093
lowerback 56.8045 -3.12985 0.461837
upperback 7.75059 -6.17995 -3.59229
thorax -13.0794 -3.43691 -1.0572
lowerneck 6.63258 1.968 -0.927228
upperneck -0.463011 2.50367 -0.710608
head -1.25476 1.25535 -0.14052
rclavicle 1.75924e-014 1.74931e-014
rhumerus 68.8828 3.49851 -82.1371
rradius 11.459
rwrist 45.8134
rhand -27.245 16.6294
rfingers 7.12502
rthumb -0.65667 -13.3493
lclavicle 1.75924e-014 1.74931e-014
lhumerus 71.0248 -2.7605 85.6407
lradius 6.93993
lwrist -55.0454
lhand -20.7432 0.37405
lfingers 7.12502
lthumb 5.62225 30.2795
rfemur 178.712 41.3771 30.8873
rtibia 198.425
rfoot -124.607 105.698
rtoes -0.659581
lfemur -41.7807 66.5565 63.4742
ltibia 156.606
lfoot 8.06896 -77.0528
ltoes 8.0455
89
root -3.33339 5.91036 -2.97115 303.464 -81.6196 -339.218
lowerback 56.8725 -3.16228 0.489433
upperback 7.83049 -6.21589 -3.6065
thorax -12.9951 -3.45954 -1.07042
lowerneck 6.93258 1.97324 -0.905367
upperneck -0.792312 2.50673 -0.732296
head -1.4124 1.26011 -0.157082
rclavicle 6.06293e-015 -1.23246e-014
rhumerus 68.8669 3.50532 -82.045
rradius 11.3886
rwrist 45.7223
rhand -27.2795 16.8729
rfingers 7.12502
rthumb -0.690053 -13.1057
lclavicle 6.06293e-015 -1.23246e-014
lhumerus 71.0783 -2.64328 85.6077
lradius 6.5445
lwrist -55.0708
lhand -21.0722 -0.0745112
lfingers 7.12502
lthumb 5.30465 29.8391
rfemur 179.599 41.2069 30.7795
rtibia 198.098
rfoot -125.373 106.04
rtoes -1.16952
lfemur -42.5357 66.8082 63.2192
ltibia 156.883
lfoot 8.1025 -77.0109
ltoes 7.70602
90
root -3.33204 5.89446 -2.97103 303.576 -81.5653 -339.225
lowerback 56.8687 -3.19427 0.512019
upperback 7.90505 -6.25037 -3.62779
thorax -12.9127 -3.47942 -1.09052
lowerneck 7.2252 1.98328 -0.904644
upperneck -1.11919 2.51434 -0.757171
head -1.56935 1.26725 -0.171311
rclavicle -4.13472e-014 -1.31198e-014
rhumerus 68.822 3.4452 -82.1572
rradius 11.3992
rwrist 45.9536
rhand -27.25 17.0703
rfingers 7.12502
rthumb -0.661588 -12.9084
lclavicle -4.13472e-014 -1.31198e-014
lhumerus 70.9885 -2.53858 85.5695
lradius 6.51148
lwrist -54.986
lhand -21.1968 -0.558395
lfingers 7.12502
lthumb 5.18435 29.3582
rfemur 180.022 41.1574 30.7596
rtibia 197.859
rfoot -124.701 106.397
rtoes -1.71928
lfemur -43.3085 67.0613 62.6259
ltibia 157.064
lfoot 7.09629 -76.8358
ltoes 7.35978
